<?xml version="1.0" encoding="UTF-8" standalone="no"?>
<!-- Created with Inkscape (http://www.inkscape.org/) -->
<!-- Iago Alves da Silva -->
<svg
   xmlns:dc="http://purl.org/dc/elements/1.1/"
   xmlns:cc="http://creativecommons.org/ns#"
   xmlns:rdf="http://www.w3.org/1999/02/22-rdf-syntax-ns#"
   xmlns:svg="http://www.w3.org/2000/svg"
   xmlns="http://www.w3.org/2000/svg"
   xmlns:sodipodi="http://sodipodi.sourceforge.net/DTD/sodipodi-0.dtd"
   xmlns:inkscape="http://www.inkscape.org/namespaces/inkscape"
   width="245"
   height="245"
   id="svg2"
   version="1.1"
   inkscape:version="0.48.4 r9939"
   sodipodi:docname="desenho.svg">
  <defs
     id="defs4" />
  <sodipodi:namedview
     id="base"
     pagecolor="#ffffff"
     bordercolor="#666666"
     borderopacity="1.0"
     inkscape:pageopacity="0.0"
     inkscape:pageshadow="2"
     inkscape:zoom="0.54115914"
     inkscape:cx="-229.50777"
     inkscape:cy="36.344795"
     inkscape:document-units="px"
     inkscape:current-layer="layer1"
     showgrid="false"
     inkscape:window-width="1366"
     inkscape:window-height="712"
     inkscape:window-x="0"
     inkscape:window-y="27"
     inkscape:window-maximized="1" />
  <metadata
     id="metadata7">
    <rdf:RDF>
      <cc:Work
         rdf:about="">
        <dc:format>image/svg+xml</dc:format>
        <dc:type
           rdf:resource="http://purl.org/dc/dcmitype/StillImage" />
        <dc:title></dc:title>
      </cc:Work>
    </rdf:RDF>
  </metadata>
  <g
     inkscape:label="Camada 1"
     inkscape:groupmode="layer"
     id="layer1"
     transform="translate(0,-807.3622)">
    <path
       inkscape:connector-curvature="0"
       id="color_b"
       d="M 14.816902,1052.0952 C 25.41383,1039.9392 63.6692,996.40829 126.82044,933.25883 231.40392,828.67833 242.6979,815.00043 244,816.56919 c 0.0206,121.0417 1.04663,121.2625 0,226.02291 -0.66772,6.5868 -4.80193,9.5662 -11.35324,9.4871 l -107.07338,0.2203 c -107.641697,-0.4188 -4.2723,0.012 -110.756478,-0.2043 z m 179.474578,-14.766 c 1.40117,-1.0465 1.71728,-3.5298 1.94113,-15.25 l 0.26739,-14 15.47265,-0.5 c 18.8364,-0.6087 17.99075,0.2043 18.01261,-17.31566 0.0141,-11.31674 -0.75543,-15.16316 -3.38496,-16.91895 -0.60517,-0.40408 -7.7378,-0.74158 -15.8503,-0.75 l -14.75,-0.0153 0,-14.8 c 0,-10.17778 -0.37477,-15.17477 -1.2,-16 -1.67751,-1.67751 -30.92249,-1.67751 -32.6,0 -0.82523,0.82523 -1.2,5.82222 -1.2,16 l 0,14.8 -15.42857,0 c -12.69264,0 -15.70723,0.27866 -17,1.57143 -2.11929,2.11929 -2.34078,30.54508 -0.25152,32.27908 0.79557,0.6602 7.44954,1.2054 16.75,1.3724 l 15.43009,0.277 0.26739,14 c 0.22385,11.7202 0.53996,14.2035 1.94113,15.25 1.15413,0.8619 6.05661,1.25 15.79148,1.25 9.73487,0 14.63735,-0.3881 15.79148,-1.25 z M 56.49078,929.35763 c -0.25751,-0.70309 -0.58578,-7.35335 -0.72949,-14.77835 l -0.26129,-13.5 -14,-0.24324 C 29.858003,900.63377 23,899.87071 23,899.87071 l 0,-28.24189 16.25,-0.27477 16.25,-0.27477 0.27539,-15.75 0.2754,-15.75 14.44921,0 14.44921,0 0.2754,15.75 0.27539,15.75 16.5,0.5 16.5,0.5 0,14 0,14 -16.5,0.5 -16.5,0.5 -0.5,14.5 -0.5,14.5 -13.77051,0.27835 c -10.47202,0.21168 -13.88265,-0.0279 -14.23871,-1 z"
       style="fill:#333333;fill-opacity:1"
       sodipodi:nodetypes="csccccccscsssscsssscsscscscsccscsccccccccccccccccccsc"
       inkscape:label="#path3004" />
  </g>
</svg>