<?xml version="1.0" encoding="UTF-8" standalone="no"?>
<!-- Created with Inkscape (http://www.inkscape.org/) -->
<!-- Iago Alves da Silva -->
<svg
   xmlns:dc="http://purl.org/dc/elements/1.1/"
   xmlns:cc="http://creativecommons.org/ns#"
   xmlns:rdf="http://www.w3.org/1999/02/22-rdf-syntax-ns#"
   xmlns:svg="http://www.w3.org/2000/svg"
   xmlns="http://www.w3.org/2000/svg"
   xmlns:sodipodi="http://sodipodi.sourceforge.net/DTD/sodipodi-0.dtd"
   xmlns:inkscape="http://www.inkscape.org/namespaces/inkscape"
   id="svg3039"
   version="1.1"
   inkscape:version="0.48.4 r9939"
   width="1024"
   height="1024"
   sodipodi:docname="cl.png">
  <metadata
     id="metadata3045">
    <rdf:RDF>
      <cc:Work
         rdf:about="">
        <dc:format>image/svg+xml</dc:format>
        <dc:type
           rdf:resource="http://purl.org/dc/dcmitype/StillImage" />
        <dc:title></dc:title>
      </cc:Work>
    </rdf:RDF>
  </metadata>
  <defs
     id="defs3043" />
  <sodipodi:namedview
     pagecolor="#ffffff"
     bordercolor="#666666"
     borderopacity="1"
     objecttolerance="10"
     gridtolerance="10"
     guidetolerance="10"
     inkscape:pageopacity="0"
     inkscape:pageshadow="2"
     inkscape:window-width="1366"
     inkscape:window-height="712"
     id="namedview3041"
     showgrid="false"
     inkscape:zoom="0.51074219"
     inkscape:cx="512"
     inkscape:cy="509.0631"
     inkscape:window-x="0"
     inkscape:window-y="27"
     inkscape:window-maximized="1"
     inkscape:current-layer="svg3039" />
  <path
     style="fill:#ffffff;fill-opacity:1"
     d="M 478.43668,1022.9128 C 354.21878,1014.7216 238.3113,962.09722 150.09762,873.84007 96.744182,820.46032 56.956262,758.30207 31.015272,687.80493 7.0662416,622.72114 -3.4304984,550.08161 0.98558159,479.99347 10.079322,335.6654 79.346592,202.47953 192.27489,112.18579 271.52872,48.817054 364.80798,11.404768 467.43668,1.8244191 c 18.198,-1.69878098 70.8019,-1.69878098 89,0 86.5043,8.075145 164.182,35.0446939 236,81.9386859 66.9239,43.698425 123.9683,104.271085 163.941,174.080995 103.67712,181.06605 86.65652,408.2574 -42.825,571.62791 -24.6595,31.11367 -56.6272,62.70174 -89.116,88.0579 -14.1537,11.04638 -41.3254,29.16449 -58.3506,38.90827 -86.791,49.67172 -187.9493,73.04902 -287.6494,66.47462 z m 83.5,-106.3449 c 93.7561,-13.22103 172.9547,-51.82312 236.9844,-115.5084 64.5373,-64.19006 104.6269,-145.15608 117.1337,-236.56603 2.9223,-21.3583 3.6986,-67.69899 1.516,-90.5 -10.656,-111.32402 -64.6529,-211.03435 -152.1341,-280.93034 -59.3927,-47.45372 -128.9953,-76.24571 -208.5,-86.2486 -14.2995,-1.7991 -75.7005,-1.7991 -90,0 -30.2178,3.80185 -55.6594,9.42962 -82.7919,18.31386 -144.44836,47.29793 -251.59754,173.5712 -274.71395,323.74511 -3.57953,23.25413 -4.48734,36.02351 -4.48734,63.11997 0,37.22604 3.12995,63.83008 11.48403,97.6124 11.52122,46.58967 29.22814,86.86952 55.99926,127.3876 55.84641,84.52354 141.6207,145.36217 239.6358,169.97058 17.6977,4.44333 38.636,8.27732 54.3741,9.95639 5.5,0.58679 11.575,1.2466 13.5,1.46626 1.925,0.21966 18.575,0.26516 37,0.10112 24.0781,-0.21436 36.7344,-0.75434 45,-1.91992 z m -77.5,-118.22383 c -1.65,-0.19235 -7.275,-0.82921 -12.5,-1.41525 -40.9036,-4.58773 -85.4314,-21.07811 -121.1982,-44.88442 -18.9577,-12.61817 -32.2566,-23.68377 -48.3018,-40.19026 -28.124,-28.93265 -48.93417,-61.52006 -62.81255,-98.36067 -4.8884,-12.9764 -10.86358,-33.99056 -9.93027,-34.92386 0.31687,-0.31688 31.03844,-0.57614 68.27012,-0.57614 l 67.694,0 3.2959,6.25 c 21.9737,41.6689 62.5153,72.09897 108.1041,81.14168 35.9683,7.13445 70.4578,2.29011 102.807,-14.44009 55.7646,-28.84005 88.2142,-86.88757 83.9653,-150.20159 -1.4498,-21.60409 -6.1618,-38.63218 -16.3957,-59.25 -10.7507,-21.65903 -26.0111,-40.004 -45.3806,-54.55362 -53.3454,-40.07085 -125.6063,-42.11439 -180.6706,-5.10938 -21.1511,14.21427 -40.2481,35.51676 -51.917,57.913 l -3.7775,7.25 -67.7094,0 c -37.24023,0 -67.96875,-0.25926 -68.28562,-0.57614 -0.31688,-0.31687 0.76391,-5.57771 2.40175,-11.69076 8.81046,-32.88402 25.7121,-67.06826 47.71027,-96.49592 11.2171,-15.00547 37.0228,-41.37069 51.1308,-52.23945 44.0068,-33.90264 91.6641,-53.34627 146,-59.5663 19.623,-2.24632 55.7381,-1.51763 74.5,1.50318 82.0518,13.211 151.527,58.10992 197.2955,127.50392 9.3024,14.10421 22.4609,40.34302 28.6158,57.06147 6.0713,16.49111 11.8685,39.14564 14.7414,57.60682 1.9166,12.31585 2.2398,18.36218 2.2398,41.89318 0,23.531 -0.3232,29.57733 -2.2398,41.89318 -4.8944,31.45116 -13.841,59.36461 -28.0805,87.61128 -43.6522,86.59209 -127.3849,144.86701 -224.0722,155.94618 -12.1044,1.38701 -46.5332,1.94529 -55.5,0.89996 z"
     id="path3049"
     inkscape:connector-curvature="0" />
</svg>